<svg xmlns="http://www.w3.org/2000/svg" viewBox="0 0 960 600" role="img" aria-labelledby="title desc">
  <title id="title">有机单晶光电探测器阵列与空间光信号读出示意图</title>
  <desc id="desc">展示三乘六可寻址探测器阵列、单像素有机单晶器件、S形光照掩膜及空间电流响应。</desc>
  <defs>
    <linearGradient id="wafer" x1="0" y1="0" x2="1" y2="1"><stop offset="0" stop-color="#edf8f5"/><stop offset="1" stop-color="#dcecf3"/></linearGradient>
    <linearGradient id="crystal" x1="0" y1="0" x2="1" y2="1"><stop offset="0" stop-color="#24a377"/><stop offset="1" stop-color="#176b83"/></linearGradient>
    <radialGradient id="light"><stop offset="0" stop-color="#ffe67a" stop-opacity=".95"/><stop offset=".45" stop-color="#f6c84f" stop-opacity=".42"/><stop offset="1" stop-color="#f6c84f" stop-opacity="0"/></radialGradient>
    <linearGradient id="heat" x1="0" y1="1" x2="0" y2="0"><stop offset="0" stop-color="#dceff1"/><stop offset=".45" stop-color="#4cae9c"/><stop offset="1" stop-color="#0d5f80"/></linearGradient>
    <filter id="shadow" x="-20%" y="-20%" width="140%" height="140%"><feDropShadow dx="0" dy="8" stdDeviation="10" flood-color="#163f48" flood-opacity=".10"/></filter>
  </defs>
  <rect width="960" height="600" fill="#fff"/>
  <g filter="url(#shadow)">
    <rect x="48" y="48" width="405" height="220" rx="20" fill="url(#wafer)"/>
    <rect x="507" y="48" width="405" height="220" rx="20" fill="#f4faf9"/>
    <rect x="48" y="322" width="405" height="230" rx="20" fill="#f7fbfa"/>
    <rect x="507" y="322" width="405" height="230" rx="20" fill="#eef7f6"/>
  </g>
  <g transform="translate(104 78)">
    <rect x="0" y="0" width="292" height="160" rx="14" fill="#d9e5e5" stroke="#b8cfcd"/>
    <g stroke="#769b99" stroke-width="3" fill="none">
      <path d="M24 0v160M73 0v160M122 0v160M171 0v160M220 0v160M269 0v160"/>
      <path d="M0 34h292M0 80h292M0 126h292"/>
    </g>
    <g fill="#f1bd55" stroke="#fff" stroke-width="2">
      <circle cx="24" cy="34" r="8"/><circle cx="73" cy="34" r="8"/><circle cx="122" cy="34" r="8"/><circle cx="171" cy="34" r="8"/><circle cx="220" cy="34" r="8"/><circle cx="269" cy="34" r="8"/>
      <circle cx="24" cy="80" r="8"/><circle cx="73" cy="80" r="8"/><circle cx="122" cy="80" r="8"/><circle cx="171" cy="80" r="8"/><circle cx="220" cy="80" r="8"/><circle cx="269" cy="80" r="8"/>
      <circle cx="24" cy="126" r="8"/><circle cx="73" cy="126" r="8"/><circle cx="122" cy="126" r="8"/><circle cx="171" cy="126" r="8"/><circle cx="220" cy="126" r="8"/><circle cx="269" cy="126" r="8"/>
    </g>
    <g fill="url(#crystal)" opacity=".92">
      <rect x="17" y="26" width="14" height="16" rx="4"/><rect x="66" y="72" width="14" height="16" rx="4"/><rect x="115" y="118" width="14" height="16" rx="4"/><rect x="164" y="26" width="14" height="16" rx="4"/><rect x="213" y="72" width="14" height="16" rx="4"/><rect x="262" y="118" width="14" height="16" rx="4"/>
    </g>
  </g>
  <g transform="translate(550 78)">
    <rect x="0" y="0" width="320" height="160" rx="18" fill="#e4efee"/>
    <path d="M45 32h88v96H45zM187 32h88v96h-88z" fill="#e9b74f"/>
    <path d="M126 58h68v44h-68z" fill="url(#crystal)" stroke="#0e6f69" stroke-width="3"/>
    <path d="M133 80h54" stroke="#fff" stroke-width="3" stroke-dasharray="5 5"/>
    <circle cx="160" cy="80" r="56" fill="url(#light)"/>
    <path d="M160 6v30M148 24l12 12 12-12" fill="none" stroke="#d79d22" stroke-width="4" stroke-linecap="round" stroke-linejoin="round"/>
    <g fill="#176b83"><circle cx="143" cy="72" r="3"/><circle cx="156" cy="87" r="3"/><circle cx="174" cy="68" r="3"/><circle cx="181" cy="91" r="3"/></g>
  </g>
  <g transform="translate(82 350)">
    <rect x="0" y="0" width="164" height="174" rx="16" fill="#183f49"/>
    <path d="M117 39c-12-11-28-16-44-14-20 2-33 13-33 28 0 17 15 24 36 30 19 5 27 9 27 18 0 10-10 16-25 16-17 0-32-7-43-18v29c12 9 28 14 45 14 30 0 51-16 51-42 0-23-19-32-44-39-14-4-20-7-20-13 0-7 7-11 18-11 12 0 24 4 32 11z" fill="#fff"/>
    <circle cx="82" cy="87" r="118" fill="url(#light)" opacity=".74"/>
    <path d="M190 87h75" stroke="#2f8d83" stroke-width="4" stroke-linecap="round"/>
    <path d="M248 73l18 14-18 14" fill="none" stroke="#2f8d83" stroke-width="4" stroke-linecap="round" stroke-linejoin="round"/>
  </g>
  <g transform="translate(575 352)">
    <g transform="skewX(-12)">
      <g fill="#d9eceb" stroke="#fff" stroke-width="3">
        <rect x="0" y="0" width="42" height="42"/><rect x="45" y="0" width="42" height="42"/><rect x="90" y="0" width="42" height="42"/><rect x="135" y="0" width="42" height="42"/><rect x="180" y="0" width="42" height="42"/><rect x="225" y="0" width="42" height="42"/>
        <rect x="0" y="45" width="42" height="42"/><rect x="45" y="45" width="42" height="42" fill="#66b5a4"/><rect x="90" y="45" width="42" height="42" fill="#217f83"/><rect x="135" y="45" width="42" height="42" fill="#217f83"/><rect x="180" y="45" width="42" height="42" fill="#62b2a1"/><rect x="225" y="45" width="42" height="42"/>
        <rect x="0" y="90" width="42" height="42"/><rect x="45" y="90" width="42" height="42" fill="#58aa9c"/><rect x="90" y="90" width="42" height="42"/><rect x="135" y="90" width="42" height="42"/><rect x="180" y="90" width="42" height="42" fill="#247f84"/><rect x="225" y="90" width="42" height="42"/>
      </g>
    </g>
    <rect x="290" y="4" width="15" height="128" rx="7" fill="url(#heat)"/>
    <g stroke="#1b6e79" stroke-width="3" stroke-linecap="round">
      <path d="M22 0v-16M65 45v-31M110 45v-48M155 45v-43M200 45v-25M243 0v-11"/>
      <path d="M22 90v-13M65 135v-35M110 90v-10M155 90v-8M200 135v-42M243 90v-12"/>
    </g>
    <g fill="#1b6e79">
      <circle cx="22" cy="-16" r="5"/><circle cx="65" cy="14" r="5"/><circle cx="110" cy="-3" r="5"/><circle cx="155" cy="2" r="5"/><circle cx="200" cy="20" r="5"/><circle cx="243" cy="-11" r="5"/>
    </g>
  </g>
</svg>